<?xml version="1.0" standalone="no"?>
<!DOCTYPE svg PUBLIC "-//W3C//DTD SVG 20010904//EN"
 "http://www.w3.org/TR/2001/REC-SVG-20010904/DTD/svg10.dtd">
<svg version="1.0" xmlns="http://www.w3.org/2000/svg"
 width="412.000000pt" height="412.000000pt" viewBox="0 0 412.000000 412.000000"
 preserveAspectRatio="xMidYMid meet">

<g transform="translate(0.000000,412.000000) scale(0.100000,-0.100000)"
fill="#000000" stroke="none">
<path d="M1855 4109 c-1197 -123 -2038 -1244 -1819 -2424 154 -833 816 -1495
1649 -1649 898 -167 1802 283 2212 1099 336 668 289 1439 -125 2066 -414 628
-1168 985 -1917 908z m354 -539 c99 -13 149 -31 216 -79 l50 -36 -19 30 c-10
17 -30 43 -45 58 l-26 29 30 -8 c154 -37 250 -107 298 -213 16 -36 18 -60 15
-123 l-5 -78 62 -40 c102 -66 143 -123 130 -180 -5 -23 3 -33 85 -94 120 -92
160 -136 160 -180 0 -19 -4 -38 -10 -41 -5 -3 -10 -40 -10 -81 0 -84 -13 -124
-59 -176 -27 -31 -30 -39 -21 -63 27 -71 -1 -159 -72 -220 l-44 -39 44 -105
c24 -58 63 -153 87 -211 140 -342 280 -669 300 -700 28 -45 89 -98 131 -116
18 -8 58 -17 88 -20 l56 -7 0 -38 0 -39 -490 0 -490 0 0 38 0 38 77 11 c67 10
81 16 105 42 16 17 28 42 28 55 0 29 -43 153 -103 296 l-44 105 -429 0 -429 0
-57 -145 c-48 -121 -57 -155 -58 -208 0 -59 3 -67 33 -97 33 -33 101 -55 168
-55 29 0 30 -2 27 -38 l-3 -37 -370 0 -370 0 -3 38 c-3 31 0 37 17 37 41 0
130 42 176 83 92 81 141 180 436 900 66 161 68 169 53 192 -9 14 -19 23 -23
21 -4 -3 -33 -68 -65 -145 -33 -78 -62 -141 -66 -141 -4 0 -10 17 -14 38 -16
98 -101 218 -201 283 l-66 44 28 20 c66 47 113 115 137 195 23 77 21 211 -5
280 -36 96 -35 98 25 170 30 36 53 66 51 68 -6 6 -89 -40 -126 -69 l-36 -28
-51 35 c-29 19 -52 38 -52 43 0 16 60 90 95 118 87 66 86 65 32 59 -65 -8
-114 -35 -170 -95 -26 -28 -53 -51 -60 -51 -28 0 -87 22 -87 32 0 6 23 41 51
79 49 67 120 129 146 129 7 0 13 5 13 10 0 6 -4 10 -8 10 -12 0 -82 69 -82 80
0 6 12 10 28 10 44 1 109 35 190 103 147 121 227 152 383 145 108 -4 117 6 33
38 -52 20 -47 31 16 37 25 2 54 4 65 5 11 1 58 -3 104 -8z m-1072 -680 c250
-32 389 -104 454 -235 27 -55 32 -76 32 -142 1 -95 -13 -146 -56 -209 -37 -54
-124 -111 -213 -139 l-57 -18 79 -26 c242 -79 369 -258 335 -472 -34 -211
-221 -342 -529 -369 -66 -6 -299 -9 -532 -8 l-415 3 0 25 c0 22 5 26 49 32 57
8 93 31 121 79 19 33 20 55 23 654 2 420 0 632 -8 657 -15 51 -67 94 -134 109
-47 10 -56 16 -56 34 0 12 3 24 6 28 10 10 816 8 901 -3z"/>
<path d="M2202 3476 c63 -51 100 -98 145 -181 l33 -60 0 42 c0 23 -4 53 -10
67 -5 14 -6 26 -2 26 12 0 115 -100 135 -130 15 -24 16 -24 16 -3 2 45 -62
146 -122 194 -60 48 -160 89 -218 89 l-31 0 54 -44z"/>
<path d="M1885 3386 c-61 -19 -124 -54 -189 -105 -33 -25 -64 -49 -70 -53 -6
-4 -8 -9 -6 -12 3 -2 48 14 100 36 80 34 109 41 181 45 112 7 170 -12 240 -75
45 -40 51 -43 45 -22 -4 14 -16 37 -27 53 -28 38 -9 35 90 -18 45 -25 85 -45
87 -45 11 0 -28 58 -58 87 -106 100 -273 147 -393 109z"/>
<path d="M2587 3363 c10 -26 14 -56 10 -95 -4 -46 -2 -60 13 -73 14 -12 19
-13 27 -3 29 37 18 121 -23 175 -33 44 -47 42 -27 -4z"/>
<path d="M1823 3214 c-35 -18 -63 -67 -63 -111 1 -42 33 -105 69 -136 25 -21
43 -27 80 -27 60 0 69 9 29 29 -70 36 -119 144 -78 172 20 14 110 3 170 -20
28 -11 50 -15 50 -11 0 5 -19 28 -43 52 -61 63 -148 84 -214 52z"/>
<path d="M2414 3134 c5 -13 2 -14 -11 -9 -29 13 -81 18 -108 11 -16 -4 -38
-27 -61 -62 -22 -34 -48 -61 -67 -69 l-32 -14 40 -1 40 -1 -32 -16 c-40 -20
-94 -141 -99 -223 -4 -54 -3 -54 8 -20 l12 35 6 -65 c11 -111 38 -151 133
-203 l49 -27 -32 37 c-51 58 -70 108 -69 188 l0 70 23 -50 c24 -54 71 -100
123 -122 38 -16 116 -17 144 -3 21 12 25 1 7 -19 -11 -11 -7 -12 22 -8 19 4
64 9 100 11 57 5 61 4 30 -5 -59 -18 -110 -41 -121 -56 -9 -11 5 -13 82 -14
l94 0 -73 -18 c-126 -31 -119 -57 13 -49 l74 5 -46 -33 c-63 -45 -71 -60 -33
-68 41 -8 114 7 209 44 99 38 138 69 147 116 8 43 -2 55 -82 98 -56 30 -85 59
-72 71 3 4 15 2 26 -4 21 -11 242 -3 242 9 0 18 -97 102 -185 160 -87 57 -134
111 -85 95 16 -5 20 -2 20 19 0 36 -42 80 -114 120 -74 42 -80 43 -73 16 3
-11 1 -23 -4 -26 -5 -3 -9 -1 -9 5 0 19 -87 62 -156 76 -87 18 -87 18 -80 -1z
m228 -238 c-10 -22 -7 -31 23 -71 19 -25 33 -45 31 -45 -2 0 -33 14 -69 30
-37 17 -75 30 -85 30 -26 0 -33 10 -22 31 8 14 6 19 -11 24 -29 9 -35 -1 -22
-35 6 -17 9 -30 6 -30 -10 0 -50 25 -83 52 -19 15 -43 28 -54 28 -29 0 -8 15
40 28 63 18 130 15 176 -9 l41 -21 -7 34 -6 33 27 -27 c23 -24 25 -30 15 -52z"/>
<path d="M2000 2873 c-70 -41 -155 -109 -194 -155 -75 -87 -100 -223 -62 -336
17 -51 107 -164 120 -151 4 3 -4 28 -16 55 -18 38 -23 67 -23 129 0 97 13 129
115 282 66 97 116 191 107 199 -1 2 -23 -9 -47 -23z"/>
<path d="M1983 2595 c-26 -46 -45 -151 -40 -217 6 -87 35 -136 153 -258 51
-52 101 -106 112 -120 36 -47 64 -113 69 -166 9 -85 24 -69 38 42 8 57 -12
149 -45 214 -11 23 -56 82 -99 134 -115 136 -153 210 -169 331 -7 52 -9 57
-19 40z"/>
<path d="M3041 2546 c-30 -31 -32 -37 -29 -91 2 -32 8 -60 14 -62 17 -6 57 83
62 138 2 27 0 49 -5 49 -5 0 -24 -15 -42 -34z"/>
<path d="M2176 2385 c11 -64 31 -94 129 -195 96 -100 124 -151 126 -229 1 -66
18 -2 18 72 1 111 -23 148 -188 286 -29 24 -62 58 -73 75 l-19 31 7 -40z"/>
<path d="M2880 2345 c-19 -7 -61 -27 -94 -44 -32 -17 -71 -31 -87 -31 -55 0
-24 -47 58 -89 52 -26 49 -26 56 0 8 32 24 15 38 -41 7 -28 16 -50 20 -50 4 0
21 16 38 35 22 25 31 46 31 70 0 44 15 46 24 3 4 -22 9 -29 17 -21 16 16 29
83 22 117 -12 63 -49 79 -123 51z"/>
<path d="M2802 1993 c14 -42 19 -76 16 -130 -3 -78 3 -92 21 -42 25 72 2 197
-39 219 -17 9 -17 6 2 -47z"/>
<path d="M2020 1739 c-41 -105 -76 -194 -78 -200 -2 -5 139 -9 363 -9 344 0
366 1 361 18 -3 9 -37 94 -75 187 -51 124 -71 165 -76 150 -48 -146 -135 -246
-248 -284 -33 -12 -71 -21 -83 -21 -21 0 -21 1 -7 43 18 52 12 134 -17 206
-21 55 -48 101 -59 101 -3 -1 -40 -86 -81 -191z"/>
<path d="M762 2488 l3 -303 156 1 c142 0 159 2 200 23 110 57 161 144 162 278
0 73 -4 90 -32 148 -62 126 -126 155 -343 155 l-148 0 2 -302z"/>
<path d="M760 1731 l0 -351 168 0 c152 0 172 3 224 24 86 35 133 78 170 154
30 61 33 74 33 162 0 88 -3 101 -33 162 -39 80 -101 138 -181 170 -48 19 -80
23 -218 26 l-163 4 0 -351z"/>
</g>
</svg>
